# xmcd
#
# Track frame offsets:
#	150
#	16480
#	31385
#	43840
#	59342
#	75567
#	92942
#	107557
#	123717
#	142077
#	155970
#	170862
#	184125
#	206820
#
# Disc length: 2903 seconds
#
# Revision: 1
# Processed by: cddbd v1.4b42PL1 Copyright (c) Steve Scherf et al.
# Submitted via: audiograbber 1.80.04
#
DISCID=d40b550e
DTITLE=Ike and Tina Turner - Slam Music's Ike and Tina Turner
DYEAR=2000
DGENRE=Soul
TTITLE0=Living For The City
TTITLE1=Rockin' And Rollin'
TTITLE2=Sugar, Sugar
TTITLE3=Chicken
TTITLE4=Mississippi Rolling Stone
TTITLE5=Golden Empire
TTITLE6=I'm Looking For My Mind
TTITLE7=Shake A Hand
TTITLE8=Bootsie Whitelaw
TTITLE9=Too Much Man For One Woman
TTITLE10=I Know (You Don't Love Me No More)
TTITLE11=Never Been To Spain
TTITLE12=Push
TTITLE13=Raise Your Hand
EXTD=Slam Music CD0008
EXTT0=
EXTT1=
EXTT2=
EXTT3=
EXTT4=
EXTT5=
EXTT6=
EXTT7=
EXTT8=
EXTT9=
EXTT10=
EXTT11=
EXTT12=
EXTT13=
PLAYORDER=
